<svg xmlns="http://www.w3.org/2000/svg" viewBox="0 0 318.5 318.5">
  <path fill="#E2761B" d="M274.1 35.5L174.6 109.4 193 65.8z"/>
  <path fill="#E4761B" d="M44.4 35.5L143.9 109.4 125.5 65.8z"/>
  <path fill="#D7C1B3" d="M238.3 206.8L211.8 247.4 268.5 263z"/>
  <path fill="#D7C1B3" d="M80.2 206.8L106.7 247.4 50 263z"/>
  <path fill="#E4761B" d="M106.7 247.4L140.6 271.4 100.9 299.1z"/>
  <path fill="#E4761B" d="M211.8 247.4L177.9 271.4 217.6 299.1z"/>
  <path fill="#D7C1B3" d="M140.6 271.4L177.9 271.4 159.2 305z"/>
  <path fill="#F6851B" d="M177.9 271.4L211.8 247.4 238.3 206.8 274.1 35.5 193 65.8 174.6 109.4 159.2 216.5 159.2 305 177.9 271.4z"/>
  <path fill="#F6851B" d="M140.6 271.4L106.7 247.4 80.2 206.8 44.4 35.5 125.5 65.8 143.9 109.4 159.2 216.5 159.2 305 140.6 271.4z"/>
  <path fill="#C0AD9E" d="M268.5 263L238.3 206.8 221.3 227.1z M50 263L80.2 206.8 97.2 227.1z"/>
  <path fill="#161616" d="M177.9 271.4L211.8 247.4 221.3 227.1 199 220 179.8 244.5z M140.6 271.4L106.7 247.4 97.2 227.1 119.5 220 138.7 244.5z"/>
  <path fill="#763D16" d="M274.1 35.5L254.8 131.7 238.3 206.8 274.1 35.5z M44.4 35.5L63.7 131.7 80.2 206.8 44.4 35.5z"/>
  <path fill="#F6851B" d="M159.2 216.5L143.9 109.4 174.6 109.4z"/>
</svg>
